# xmcd
#
# Track frame offsets:
#   150
#   16039
#   35023
#   58375
#   72765
#   91995
#   104429
#   119798
#   131874
#   147908
#   163561
#   173974
#   188408
#   205059
#   216084
#   233045
#   248123
#
# Disc length: 3501 seconds
#
# Revision: 0
# Processed by: cddbd v1.5.1PL2 Copyright (c) Steve Scherf et al.
# Submitted via: GXTranscoder 2.0.1939
#
DISCID=f60dab11
DTITLE=Михаил Танич - Лесоповал 1
DYEAR=1900
DGENRE=Blues
TTITLE0=Воруй, Россия
TTITLE1=Кликуха
TTITLE2=Птичий рынок
TTITLE3=Генриетта
TTITLE4=Я куплю тебе дом
TTITLE5=Три татуировочки
TTITLE6=Заповедь
TTITLE7=Видеосалон
TTITLE8=Мишаня
TTITLE9=Пивзавод
TTITLE10=Минин и Пожарский
TTITLE11=Тося
TTITLE12=Черные пальчики
TTITLE13=Светлана Петровна
TTITLE14=Форточки-лопатники
TTITLE15=Столыпинский вагон
TTITLE16=Амулет
EXTD=
EXTT0=
EXTT1=
EXTT2=
EXTT3=
EXTT4=
EXTT5=
EXTT6=
EXTT7=
EXTT8=
EXTT9=
EXTT10=
EXTT11=
EXTT12=
EXTT13=
EXTT14=
EXTT15=
EXTT16=
PLAYORDER=
